<svg xmlns="http://www.w3.org/2000/svg" viewBox="0 0 64 64"><g fill="#0066cc" stroke-width="1.369"><path d="M32 0C14.354 0 0 14.353 0 32s14.354 32 32 32 32-14.354 32-32S49.646 0 32 0zm0 4.795c15.057 0 27.218 12.148 27.218 27.204S47.057 59.204 32 59.204C16.944 59.204 4.796 47.056 4.796 32S16.944 4.795 32 4.795z" color="#000" style="text-decoration-line:none;text-indent:0;text-transform:none"/><path d="M42.707 18.892c-1.306-.048-3.285.978-5.064 2.747l-3.836 3.815-11.496-3.86-2.242 2.314 8.668 6.587-1.938 1.928a12.659 12.659 0 0 0-1.704 2.098l-5.223-.39-1.274 1.292 5.194 3.846 3.798 5.184 1.28-1.283-.386-5.274c.658-.431 1.33-.966 1.977-1.61l2.04-2.029 6.652 8.735 2.314-2.242-3.878-11.552 3.716-3.695c2.372-2.36 3.465-5.121 2.451-6.191-.253-.268-.613-.404-1.049-.42z"/></g></svg>
